<svg   width="48px"   height="48px"  viewBox="0 0 48 48" version="1.1" xmlns="http://www.w3.org/2000/svg" xmlns:xlink="http://www.w3.org/1999/xlink">
    <!-- Generator: Sketch 52.6 (67491) - http://www.bohemiancoding.com/sketch -->
    <title>视频播放质量清晰-48px</title>
    <desc>Created with Sketch.</desc>
    <g id="视频播放质量清晰-48px" stroke="none" stroke-width="1" fill="none" fill-rule="evenodd">
        <rect id="Rectangle-Copy" fill="#444444" opacity="0" x="0" y="0" width="48" height="48"></rect>
        <g id="Group" transform="translate(0.000000, 4.000000)">
            <path d="M2,8 L2,38 L34,38 L34,8 L2,8 Z M0,6 L36,6 L36,40 L0,40 L0,6 Z" id="Rectangle-10" fill="#334966" fill-rule="nonzero"></path>
            <path d="M46,13.65146 L36,16.5086028 L36,29.4913972 L46,32.34854 L46,13.65146 Z M34,15 L48,11 L48,35 L34,31 L34,15 Z" id="Rectangle-10-Copy" fill="#334966" fill-rule="nonzero"></path>
            <rect id="Rectangle-14" fill="#334966" x="6" y="0" width="24" height="2"></rect>
            <rect id="Rectangle-14-Copy" fill="#334966" x="28" y="0" width="2" height="8"></rect>
            <rect id="Rectangle-15" fill="#00A4FF" x="2" y="23" width="32" height="15"></rect>
            <path d="M8,22 L14,22 L14,16 L16,16 L16,30 L14,30 L14,24 L8,24 L8,30 L6,30 L6,16 L8,16 L8,22 Z" id="Combined-Shape" fill="#334966"></path>
            <path d="M22,18 L22,28 L26,28 C27.1045695,28 28,27.1045695 28,26 L28,20 C28,18.8954305 27.1045695,18 26,18 L22,18 Z M20,16 L26,16 C28.209139,16 30,17.790861 30,20 L30,26 C30,28.209139 28.209139,30 26,30 L20,30 L20,16 Z" id="Rectangle-12" fill="#334966" fill-rule="nonzero"></path>
        </g>
    </g>
</svg>