<?xml version="1.0" encoding="UTF-8"?>
<svg width="16px" height="16px" viewBox="0 0 16 16" version="1.1" xmlns="http://www.w3.org/2000/svg" xmlns:xlink="http://www.w3.org/1999/xlink">
    <!-- Generator: Sketch 53 (72520) - https://sketchapp.com -->
    <title>最新发布</title>
    <desc>Created with Sketch.</desc>
    <g id="最新发布" stroke="none" stroke-width="1" fill="none" fill-rule="evenodd">
        <g id="编组" transform="translate(0.000000, -1.000000)">
            <rect id="矩形" x="0" y="1" width="16" height="16"></rect>
            <path d="M2,7 L2,9 L14,9 L14,7 L2,7 Z M0,5 L16,5 L16,11 L0,11 L0,5 Z" id="矩形" fill="#9BA6B7" fill-rule="nonzero"></path>
            <path d="M3,11 L3,15 L13,15 L13,11 L3,11 Z M1,9 L15,9 L15,17 L1,17 L1,9 Z" id="矩形" fill="#9BA6B7" fill-rule="nonzero" transform="translate(8.000000, 13.000000) scale(1, -1) translate(-8.000000, -13.000000) "></path>
            <path d="M3,11 L3,15 L7,15 L7,11 L3,11 Z M1,9 L9,9 L9,17 L1,17 L1,9 Z" id="矩形" fill="#9BA6B7" fill-rule="nonzero" transform="translate(5.000000, 13.000000) scale(1, -1) translate(-5.000000, -13.000000) "></path>
            <path d="M3.39567925,4.95460858 L7.44318177,7.29143525 L7.45649562,4.16408861 C7.45651063,4.15985855 7.45651063,4.15985855 7.45651363,4.15562847 C7.45651363,3.05809757 6.56678905,2.16837299 5.46925816,2.16837299 L5.41137735,2.16837299 C4.32199288,2.16837299 3.43297771,3.04023585 3.41175684,4.12941361 L3.39567925,4.95460858 Z" id="矩形" stroke="#9BA6B7" stroke-width="2" transform="translate(5.420441, 5.093809) rotate(-30.000000) translate(-5.420441, -5.093809) "></path>
            <path d="M8.56727252,4.95460858 L12.614775,7.29143525 L12.6280889,4.16408861 C12.6281039,4.15985855 12.6281039,4.15985855 12.6281069,4.15562847 C12.6281069,3.05809757 11.7383823,2.16837299 10.6408514,2.16837299 L10.5829706,2.16837299 C9.49358615,2.16837299 8.60457098,3.04023585 8.58335011,4.12941361 L8.56727252,4.95460858 Z" id="矩形" stroke="#9BA6B7" stroke-width="2" transform="translate(10.592034, 5.093809) scale(-1, 1) rotate(-30.000000) translate(-10.592034, -5.093809) "></path>
        </g>
    </g>
</svg>