<?xml version="1.0" encoding="utf-8"?>
<!-- Generator: Adobe Illustrator 22.1.0, SVG Export Plug-In . SVG Version: 6.00 Build 0)  -->
<svg version="1.1" id="图层_1" xmlns="http://www.w3.org/2000/svg" xmlns:xlink="http://www.w3.org/1999/xlink" x="0px" y="0px"
	 width="32px" height="32px" viewBox="0 0 32 32" style="enable-background:new 0 0 32 32;" xml:space="preserve">
<style type="text/css">
	.st0{fill:#00A4FF;}
</style>
<g id="Fill-1-path">
	<path class="st0" d="M11,23.8V8.2L23.9,16L11,23.8z M13,11.8v8.5l7.1-4.2L13,11.8z"/>
</g>
<rect x="1" y="1" class="st0" width="10" height="2"/>
<rect x="-3" y="5" transform="matrix(-1.836970e-16 1 -1 -1.836970e-16 8 4)" class="st0" width="10" height="2"/>
<rect x="25" y="5" transform="matrix(-1.836970e-16 1 -1 -1.836970e-16 36 -24)" class="st0" width="10" height="2"/>
<rect x="21" y="1" transform="matrix(-1 -1.224647e-16 1.224647e-16 -1 52 4)" class="st0" width="10" height="2"/>
<rect x="21" y="29" transform="matrix(-1 -1.224647e-16 1.224647e-16 -1 52 60)" class="st0" width="10" height="2"/>
<rect x="25" y="25" transform="matrix(6.123234e-17 -1 1 6.123234e-17 4 56)" class="st0" width="10" height="2"/>
<rect x="-3" y="25" transform="matrix(6.123234e-17 -1 1 6.123234e-17 -24 28)" class="st0" width="10" height="2"/>
<rect x="1" y="29" class="st0" width="10" height="2"/>
</svg>
